<?xml version="1.0" standalone="no"?><!DOCTYPE svg PUBLIC "-//W3C//DTD SVG 1.1//EN" "http://www.w3.org/Graphics/SVG/1.1/DTD/svg11.dtd"><svg t="1614152042604" class="icon" viewBox="0 0 1024 1024" version="1.1" xmlns="http://www.w3.org/2000/svg" p-id="6521" xmlns:xlink="http://www.w3.org/1999/xlink" width="200" height="200"><defs><style type="text/css"></style></defs><path d="M818.688 786.432c-14.336 0-26.112-11.776-26.112-26.112 0-14.336 11.776-26.112 26.112-26.624l59.392-0.512L878.08 117.76l-451.584 0 0.512 46.592c0 14.336-11.264 26.624-26.112 26.624-15.872-0.512-26.624-11.264-26.624-26.112L373.76 92.16c0-7.168 2.56-13.824 7.68-18.944 5.12-5.12 11.776-7.68 18.944-7.68l504.32 0c14.336 0 26.112 11.776 26.112 26.112l0 668.16c0 14.336-11.776 26.112-26.112 26.112L818.688 786.432C819.2 786.432 818.688 786.432 818.688 786.432z" p-id="6522" fill="#ffffff"></path><path d="M736.256 958.464 119.808 958.464c-14.336 0-26.112-11.776-26.112-26.112L93.696 259.584c0-14.336 11.776-26.112 26.112-26.112l616.448 0c14.336 0 26.112 11.776 26.112 26.112l0 672.768C762.368 946.688 750.592 958.464 736.256 958.464zM145.92 906.24l564.224 0L710.144 286.208 145.92 286.208 145.92 906.24z" p-id="6523" fill="#ffffff"></path><path d="M567.808 454.144 287.744 454.144c-14.336 0-26.112-11.776-26.112-26.112s11.776-26.112 26.112-26.112l280.064 0c14.336 0 26.112 11.776 26.112 26.112S582.656 454.144 567.808 454.144z" p-id="6524" fill="#ffffff"></path><path d="M567.808 622.08 287.744 622.08c-14.336 0-26.112-11.776-26.112-26.112s11.776-26.112 26.112-26.112l280.064 0c14.336 0 26.112 11.776 26.112 26.112S582.656 622.08 567.808 622.08z" p-id="6525" fill="#ffffff"></path><path d="M567.808 790.528 287.744 790.528c-14.336 0-26.112-11.776-26.112-26.112 0-14.336 11.776-26.112 26.112-26.112l280.064 0c14.336 0 26.112 11.776 26.112 26.112C594.432 778.752 582.656 790.528 567.808 790.528z" p-id="6526" fill="#ffffff"></path></svg>