<?xml version="1.0" standalone="no"?><!DOCTYPE svg PUBLIC "-//W3C//DTD SVG 1.1//EN" "http://www.w3.org/Graphics/SVG/1.1/DTD/svg11.dtd"><svg t="1614152097516" class="icon" viewBox="0 0 1024 1024" version="1.1" xmlns="http://www.w3.org/2000/svg" p-id="7344" data-spm-anchor-id="a313x.7781069.0.i10" xmlns:xlink="http://www.w3.org/1999/xlink" width="200" height="200"><defs><style type="text/css"></style></defs><path d="M958.976 479.744l-431.104-378.368c-9.728-8.704-24.064-8.704-33.792 0L65.024 479.744c-10.752 9.216-11.776 25.6-2.048 36.352 5.12 5.632 12.288 8.704 19.456 8.704 6.144 0 12.288-2.048 16.896-6.144l76.8-67.584v452.608c0 14.336 11.264 25.6 25.6 25.6h621.568c14.336 0 25.6-11.264 25.6-25.6V451.072l76.8 67.072c10.752 9.216 26.624 8.192 36.352-2.56 8.704-10.24 7.68-26.624-3.072-35.84z m-161.792 397.824H226.816V405.504l284.672-250.88 286.208 251.392v471.552z" fill="#ffffff" p-id="7345"></path><path d="M509.44 770.56c-6.656 0-12.8-2.048-17.92-6.656L356.352 650.24l-1.536-1.536-10.24-10.24c-20.48-20.48-31.744-47.104-31.744-75.776 0-29.184 11.264-55.808 31.744-76.288 20.48-19.968 47.616-31.232 76.288-31.232 28.16 0 56.32 11.264 76.288 31.232l12.288 11.776 12.288-11.776c20.48-19.968 47.616-31.232 76.288-31.232 28.16 0 56.32 11.264 76.288 31.232 20.48 20.48 31.744 47.616 31.744 76.288s-11.264 55.808-31.744 75.776l-9.728 9.728-1.536 1.536-135.68 114.176c-5.12 4.608-11.264 6.656-17.92 6.656z m-115.712-162.304l115.712 97.792 115.712-97.792 9.216-9.216c9.728-9.728 14.848-22.528 14.848-35.84 0-13.824-5.12-26.624-15.36-36.352-9.728-9.728-23.04-14.848-36.864-14.848s-26.624 5.12-36.864 15.36l-31.744 31.232c-10.752 10.752-28.672 10.752-39.424 0l-31.744-31.232c-9.728-9.728-23.04-15.36-36.864-15.36s-26.624 5.12-36.864 15.36c-9.728 9.728-15.36 22.528-15.36 35.84 0 13.824 5.12 26.112 15.36 35.84l10.24 9.216z" fill="#ffffff" p-id="7346"></path></svg>