<?xml version="1.0" standalone="no"?><!DOCTYPE svg PUBLIC "-//W3C//DTD SVG 1.1//EN" "http://www.w3.org/Graphics/SVG/1.1/DTD/svg11.dtd"><svg t="1614152119255" class="icon" viewBox="0 0 1126 1024" version="1.1" xmlns="http://www.w3.org/2000/svg" p-id="8151" xmlns:xlink="http://www.w3.org/1999/xlink" width="219.921875" height="200"><defs><style type="text/css"></style></defs><path d="M1091.9936 919.9104h-172.0832V369.152c0-37.9904-30.8224-68.8128-68.864-68.8128h-137.6768v-137.728c0-37.9904-30.8224-68.8128-68.8128-68.8128H506.88c-37.9904 0-68.8128 30.8224-68.8128 68.864v412.9792h-137.728c-37.9904 0-68.8128 30.8224-68.8128 68.864v275.3536H93.8496V59.392a34.4064 34.4064 0 0 0-68.8128 0v860.4672c0 37.9904 30.8224 68.8128 68.8128 68.8128h998.144a34.4064 34.4064 0 0 0 0-68.8128z m-791.6032 0v-275.3536h137.6768v275.3536h-137.728z m206.4896 0V162.6624h137.6768v757.248H506.88z m206.4896 0V369.152h137.728v550.7072h-137.728z" fill="#ffffff" p-id="8152"></path></svg>