<?xml version="1.0" standalone="no"?><!DOCTYPE svg PUBLIC "-//W3C//DTD SVG 1.1//EN" "http://www.w3.org/Graphics/SVG/1.1/DTD/svg11.dtd"><svg t="1614152004885" class="icon" viewBox="0 0 1024 1024" version="1.1" xmlns="http://www.w3.org/2000/svg" p-id="6132" xmlns:xlink="http://www.w3.org/1999/xlink" width="200" height="200"><defs><style type="text/css"></style></defs><path d="M518.4 6.4c-12.8-6.4-19.2-6.4-32 0L128 198.4c-6.4 6.4-12.8 19.2-12.8 25.6 0 12.8 6.4 25.6 19.2 32l140.8 89.6 6.4 6.4h12.8l-6.4 12.8c-12.8 32-19.2 64-19.2 102.4 0 134.4 102.4 243.2 236.8 243.2h12.8c32 0 70.4-6.4 96-19.2h6.4c115.2 38.4 204.8 147.2 217.6 268.8v12.8H179.2V960c12.8-96 64-179.2 140.8-230.4 12.8-12.8 19.2-32 6.4-44.8-6.4-6.4-12.8-12.8-19.2-12.8-6.4 0-19.2 0-25.6 6.4-108.8 70.4-172.8 192-172.8 320v25.6H896v-25.6c0-147.2-83.2-275.2-211.2-345.6l-12.8-6.4 6.4-6.4c44.8-44.8 70.4-108.8 70.4-172.8 0-38.4-6.4-70.4-25.6-102.4l-6.4-6.4L870.4 256c6.4-6.4 12.8-19.2 12.8-25.6 0-12.8-6.4-19.2-12.8-25.6L518.4 6.4zM512 652.8c-102.4 0-185.6-83.2-185.6-185.6 0-102.4 83.2-185.6 185.6-185.6 102.4 6.4 179.2 96 172.8 198.4-6.4 96-76.8 166.4-172.8 172.8z m179.2-352C640 243.2 576 217.6 512 217.6c-70.4 0-134.4 32-185.6 83.2l-6.4 6.4-6.4-6.4-6.4-6.4-102.4-64L512 76.8l294.4 160c0-6.4-115.2 64-115.2 64z" p-id="6133" fill="#ffffff"></path><path d="M857.6 192c-12.8 0-25.6 12.8-25.6 25.6v268.8h-6.4c-12.8 6.4-19.2 19.2-19.2 38.4 0 25.6 19.2 51.2 44.8 51.2s51.2-19.2 51.2-44.8v-12.8c0-12.8-6.4-25.6-19.2-38.4h-6.4v-256c6.4-19.2 0-32-19.2-32z" p-id="6134" fill="#ffffff"></path></svg>