<?xml version="1.0" standalone="no"?><!DOCTYPE svg PUBLIC "-//W3C//DTD SVG 1.1//EN" "http://www.w3.org/Graphics/SVG/1.1/DTD/svg11.dtd"><svg t="1614152146665" class="icon" viewBox="0 0 1024 1024" version="1.1" xmlns="http://www.w3.org/2000/svg" p-id="8977" xmlns:xlink="http://www.w3.org/1999/xlink" width="200" height="200"><defs><style type="text/css"></style></defs><path d="M389 539c53.02 0 96 42.98 96 96v181c0 53.02-42.98 96-96 96H208c-53.02 0-96-42.98-96-96V635c0-53.02 42.98-96 96-96z m427 0c53.02 0 96 42.98 96 96v181c0 53.02-42.98 96-96 96H635c-53.02 0-96-42.98-96-96V635c0-53.02 42.98-96 96-96z m-395 64H176v245h245V603z m427 0H603v245h245V603zM389 112c53.02 0 96 42.98 96 96v181c0 53.02-42.98 96-96 96H208c-53.02 0-96-42.98-96-96V208c0-53.02 42.98-96 96-96z m427 0c53.02 0 96 42.98 96 96v181c0 53.02-42.98 96-96 96H635c-53.02 0-96-42.98-96-96V208c0-53.02 42.98-96 96-96z m-395 64H176v245h245V176z m427 0H603v245h245V176z" p-id="8978" fill="#ffffff"></path></svg>