<?xml version="1.0" standalone="no"?><!DOCTYPE svg PUBLIC "-//W3C//DTD SVG 1.1//EN" "http://www.w3.org/Graphics/SVG/1.1/DTD/svg11.dtd"><svg t="1614151811173" class="icon" viewBox="0 0 1024 1024" version="1.1" xmlns="http://www.w3.org/2000/svg" p-id="3672" xmlns:xlink="http://www.w3.org/1999/xlink" width="200" height="200"><defs><style type="text/css"></style></defs><path d="M1013.56885333 966.96547555s-29.12711111 51.26371555-96.70200888 51.26371556h-815.55911112c-37.86524445 0-69.90506667-20.38897778-87.96387555-51.26371556 0 0-13.98101333-14.56355555-13.98101333-51.26371555V890.65244445h1.74762666c13.39847111-154.37368889 149.13080889-283.11552 334.96177778-333.79669334C256.26396445 501.51424 203.25262222 409.47256889 203.25262222 304.61496889c0-168.93724445 136.89742222-305.83466667 305.83466667-305.83466667S814.92195555 135.67772445 814.92195555 304.61496889c0 104.8576-53.01134222 196.89927111-133.40216888 252.24078222 185.83096889 50.09863111 321.56330667 179.42300445 334.96177778 333.79669334h1.74762666v25.63185777c0 16.89372445-1.74762667 33.78744889-4.66033778 50.68117333z" fill="#ffffff" p-id="3673"></path></svg>