<?xml version="1.0" standalone="no"?><!DOCTYPE svg PUBLIC "-//W3C//DTD SVG 1.1//EN" "http://www.w3.org/Graphics/SVG/1.1/DTD/svg11.dtd"><svg t="1614151899746" class="icon" viewBox="0 0 1024 1024" version="1.1" xmlns="http://www.w3.org/2000/svg" p-id="5252" xmlns:xlink="http://www.w3.org/1999/xlink" width="200" height="200"><defs><style type="text/css"></style></defs><path d="M726.4 467.2v-28.8c0-92.8-19.2-134.4-22.4-140.8-3.2-9.6-12.8-16-22.4-19.2-6.4-3.2-80-22.4-169.6-22.4-57.6 0-115.2 6.4-169.6 19.2-9.6 3.2-16 9.6-22.4 19.2-3.2 6.4-22.4 48-22.4 160v22.4c0 9.6 3.2 16 9.6 22.4 6.4 6.4 16 9.6 22.4 9.6 9.6 0 16-3.2 22.4-9.6 6.4-6.4 9.6-16 9.6-22.4v-22.4c0-57.6 6.4-92.8 9.6-112v-3.2h3.2c25.6-3.2 76.8-12.8 131.2-12.8 44.8 0 89.6 3.2 134.4 12.8h3.2v3.2c3.2 16 9.6 48 9.6 92.8v28.8h73.6z m0 0" fill="#ffffff" p-id="5253"></path><path d="M905.6 928v-307.2c0-25.6-6.4-51.2-19.2-73.6V211.2c0-64-51.2-115.2-115.2-115.2H249.6c-64 0-115.2 51.2-115.2 115.2V544c-12.8 22.4-19.2 48-19.2 73.6V928h67.2v-121.6h92.8v41.6h67.2v-41.6h332.8v41.6h67.2v-41.6h92.8V928h70.4zM204.8 211.2c0-25.6 22.4-48 48-48h521.6c25.6 0 48 22.4 48 48V480l-9.6-3.2c-6.4-3.2-12.8-6.4-19.2-6.4-60.8-16-156.8-32-278.4-32-121.6 0-217.6 19.2-278.4 32-6.4 0-12.8 3.2-19.2 6.4l-12.8 3.2V211.2z m-19.2 528v-118.4c0-41.6 25.6-73.6 67.2-83.2 57.6-12.8 147.2-32 262.4-32 115.2 0 204.8 16 262.4 32 38.4 9.6 67.2 44.8 67.2 83.2v118.4H185.6z m0 0" fill="#ffffff" p-id="5254"></path></svg>